# xmcd
#
# Track frame offsets: 
#        150
#        20072
#        39058
#        55851
#        72251
#        88407
#        106387
#        128146
#        144269
#        160345
#        173872
#
# Disc length: 2655 seconds
#
# Revision: 0
# Processed by: cddbd v1.5.2PL0 Copyright (c) Steve Scherf et al.
# Submitted via: ExactAudioCopyFreeDBPlugin 1.0
#
DISCID=920a5d0b
DTITLE=King Gizzard And The Lizard Wizard - Gumboot Soup
DYEAR=2017
DGENRE=No, thanks.
TTITLE0=Beginner's Luck
TTITLE1=Greenhouse Heat Death
TTITLE2=Barefoot Desert
TTITLE3=Muddy Water
TTITLE4=Superposition
TTITLE5=Down The Sink
TTITLE6=The Great Chain Of Being
TTITLE7=The Last Oasis
TTITLE8=All Is Known
TTITLE9=I'm Sleepin' In
TTITLE10=The Wheel
EXTD=
EXTT0=
EXTT1=
EXTT2=
EXTT3=
EXTT4=
EXTT5=
EXTT6=
EXTT7=
EXTT8=
EXTT9=
EXTT10=
PLAYORDER=
